<?xml version="1.0" standalone="no"?>
<!DOCTYPE svg PUBLIC "-//W3C//DTD SVG 20010904//EN"
 "http://www.w3.org/TR/2001/REC-SVG-20010904/DTD/svg10.dtd">
<svg version="1.0" xmlns="http://www.w3.org/2000/svg"
 width="500.000000pt" height="500.000000pt" viewBox="0 0 500.000000 500.000000"
 preserveAspectRatio="xMidYMid meet">
<metadata>
Created by potrace 1.11, written by Peter Selinger 2001-2013
</metadata>
<g transform="translate(0.000000,500.000000) scale(0.100000,-0.100000)"
fill="#000000" stroke="none">
<path d="M2354 4376 c-201 -38 -350 -131 -413 -257 -18 -36 -43 -69 -63 -83
-21 -14 -34 -31 -36 -48 -3 -22 -17 -35 -75 -67 -72 -39 -174 -131 -147 -131
8 0 32 5 53 11 22 6 41 8 44 5 3 -2 -10 -25 -28 -50 -26 -37 -38 -46 -63 -46
-69 0 -76 -7 -76 -69 0 -61 13 -87 45 -93 16 -3 21 -17 31 -83 22 -152 50
-222 108 -273 87 -76 301 -96 418 -39 100 49 185 156 234 296 26 73 62 111
107 111 48 0 80 -29 107 -97 59 -149 108 -219 193 -277 102 -70 252 -83 384
-35 105 40 158 119 184 279 7 39 15 70 19 70 4 0 27 -7 50 -15 23 -8 44 -15
46 -15 10 0 2 61 -15 122 -11 36 -17 69 -14 71 8 9 -8 47 -19 47 -6 0 -36 28
-67 61 -40 45 -74 71 -125 95 -39 19 -79 34 -89 34 -16 0 -17 6 -11 45 6 43 4
47 -29 78 -19 18 -38 44 -42 58 -38 118 -203 243 -375 284 -94 22 -251 27
-336 11z m-26 -576 c34 -6 98 -22 141 -35 43 -14 118 -31 166 -38 l88 -12 -69
-24 c-38 -13 -100 -25 -139 -28 -62 -4 -82 -1 -180 33 l-110 38 -172 -1 c-95
0 -173 1 -173 2 0 8 138 48 203 60 90 16 164 18 245 5z m615 -32 l17 -28 -67
0 -68 0 50 29 c28 16 50 28 51 27 0 0 8 -13 17 -28z m-186 -44 c-3 -3 -12 -4
-19 -1 -8 3 -5 6 6 6 11 1 17 -2 13 -5z"/>
<path d="M1850 2818 c-36 -142 -100 -250 -179 -299 -49 -32 -146 -64 -223 -74
l-48 -6 0 -698 0 -697 25 -50 c14 -28 40 -60 62 -74 36 -24 42 -25 245 -28
l208 -3 0 -98 c0 -94 -1 -99 -22 -105 -13 -3 -34 -16 -48 -27 l-25 -21 40 -34
c22 -19 34 -34 26 -34 -7 0 -26 11 -43 25 -54 46 -82 29 -37 -22 39 -45 28
-56 -14 -14 -23 21 -39 30 -51 25 -15 -6 -15 -9 4 -41 23 -39 24 -43 11 -43
-6 0 -18 14 -28 30 -19 32 -34 38 -51 17 -7 -8 -6 -19 3 -37 27 -48 7 -58 -21
-11 l-17 29 -55 -25 c-30 -13 -91 -28 -136 -34 -89 -11 -122 -27 -137 -66 -12
-32 -4 -38 61 -47 348 -46 711 -48 948 -5 34 6 64 14 66 18 7 12 -13 201 -24
221 -14 27 -38 25 -97 -6 -27 -14 -75 -28 -106 -31 -51 -5 -64 -2 -124 28
l-68 34 178 3 177 2 0 135 0 135 150 0 150 0 0 -135 0 -135 178 -2 177 -3 -68
-34 c-60 -30 -73 -33 -124 -28 -31 3 -79 17 -106 31 -59 31 -83 33 -97 6 -8
-15 -27 -156 -30 -221 0 -3 30 -11 68 -18 250 -43 602 -41 952 5 65 9 73 15
61 47 -15 39 -48 55 -137 66 -45 6 -106 21 -136 34 l-55 25 -17 -29 c-28 -47
-48 -37 -21 11 9 18 10 29 3 37 -17 21 -32 15 -51 -17 -10 -16 -22 -30 -28
-30 -13 0 -12 4 11 43 19 32 19 35 4 41 -12 5 -28 -4 -51 -25 -42 -42 -53 -31
-14 14 45 51 17 68 -37 22 -17 -14 -36 -25 -43 -25 -8 0 4 15 26 34 l40 34
-25 21 c-14 11 -35 24 -47 27 -22 6 -23 11 -23 105 l0 99 192 0 c222 0 254 9
304 83 l29 42 3 712 3 712 -23 5 c-116 22 -150 31 -194 52 -99 46 -183 166
-215 307 l-14 57 -135 0 -135 0 -20 -36 c-30 -55 -115 -126 -223 -183 -53 -28
-105 -57 -114 -64 -14 -9 -22 -9 -35 0 -10 7 -62 36 -115 64 -108 57 -193 128
-223 183 l-20 36 -132 0 -132 0 -11 -42z m1149 -82 c19 -22 10 -126 -11 -140
-13 -8 -23 -8 -35 0 -23 14 -32 132 -11 145 20 13 44 11 57 -5z m-399 -332
c117 -26 230 -114 283 -221 118 -234 -4 -527 -250 -603 -202 -62 -420 27 -513
210 -102 202 -42 429 148 557 99 67 207 86 332 57z"/>
<path d="M2947 2733 c-4 -3 -7 -13 -7 -20 0 -12 3 -12 15 1 8 8 15 17 15 20 0
8 -15 7 -23 -1z"/>
<path d="M2979 2733 c0 -4 -3 -20 -5 -34 -3 -18 0 -26 11 -26 17 0 21 52 5 62
-5 3 -10 3 -11 -2z"/>
<path d="M2943 2650 c2 -41 4 -45 27 -45 20 0 26 6 28 28 2 15 -1 27 -7 27 -6
0 -11 -5 -11 -11 0 -16 -20 0 -30 25 -7 16 -9 11 -7 -24z"/>
<path d="M2361 2371 c-107 -40 -201 -134 -241 -240 -75 -198 18 -420 214 -512
238 -111 518 38 567 302 31 171 -65 357 -226 434 -51 25 -74 29 -160 32 -81 3
-110 0 -154 -16z m212 -17 c36 -7 38 -8 32 -38 -10 -47 -58 -147 -89 -184
l-28 -32 -97 92 c-53 50 -98 95 -99 100 -4 9 76 47 123 59 39 9 110 10 158 3z
m122 -50 c22 -15 52 -38 67 -52 l27 -25 -32 -45 c-18 -24 -74 -85 -126 -134
-51 -49 -91 -92 -88 -94 9 -9 150 121 201 185 27 33 53 61 58 61 13 0 59 -105
65 -149 l5 -38 -43 -7 c-56 -9 -159 -55 -159 -71 0 -17 -33 -25 -54 -13 -12 7
-24 5 -42 -7 -23 -15 -25 -15 -33 8 -13 34 -37 50 -71 45 -24 -4 -30 -1 -30
14 0 27 19 60 31 53 5 -4 9 -15 9 -25 0 -21 37 -37 52 -22 17 17 4 56 -23 69
l-27 13 35 37 c40 43 103 166 103 200 0 31 25 30 75 -3z m-361 -83 c11 -12 14
-21 8 -21 -7 0 -12 -5 -12 -11 0 -8 6 -7 16 2 14 12 23 6 70 -44 56 -60 67
-87 36 -87 -10 0 -28 -7 -41 -16 -22 -16 -23 -16 -16 5 l7 22 -34 -21 c-41
-25 -73 -25 -121 -1 l-37 19 0 -42 0 -42 -41 4 -42 4 6 50 c8 65 45 145 92
197 l37 41 27 -19 c14 -10 35 -28 45 -40z m-22 -257 c-43 -36 -92 -108 -92
-136 0 -11 11 -15 44 -14 l44 1 6 49 c4 37 47 136 59 136 1 0 2 -33 2 -74 0
-71 -1 -74 -27 -84 -16 -6 -28 -15 -28 -21 0 -8 11 -6 31 4 29 15 32 15 51 -2
41 -36 138 -11 138 36 0 10 5 7 13 -9 10 -19 21 -25 47 -27 19 -1 49 -2 65 -3
26 -1 34 -9 57 -55 l28 -54 -33 -25 c-45 -35 -102 -57 -166 -66 l-53 -7 4 46
c3 26 16 73 31 104 14 31 22 57 17 57 -13 0 -56 -87 -65 -130 -14 -73 -14 -73
-57 -67 -54 7 -137 50 -181 92 -21 20 -37 40 -37 44 0 4 18 13 40 20 22 6 40
17 40 22 0 7 -7 8 -17 4 -71 -29 -75 -29 -94 -4 -21 28 -49 111 -49 145 0 24
1 24 83 22 65 -2 89 1 108 14 40 28 36 20 -9 -18z m558 -7 c0 -52 -25 -125
-62 -179 -18 -26 -36 -48 -39 -48 -3 0 -23 27 -43 59 -37 61 -46 101 -22 101
18 0 26 -22 19 -49 -5 -18 -1 -21 25 -21 35 0 57 27 42 51 -5 7 -7 21 -4 30 6
21 -21 32 -46 19 -13 -7 -21 -7 -25 0 -5 8 -11 7 -21 -1 -10 -8 -14 -8 -14 0
0 20 114 69 163 70 24 1 27 -2 27 -32z m-394 -86 c-6 -39 -11 -46 -25 -36 -12
7 -15 64 -4 91 11 30 35 -15 29 -55z m129 30 c3 -5 1 -12 -5 -16 -5 -3 -10 1
-10 9 0 18 6 21 15 7z m45 -29 c0 -23 -4 -28 -25 -27 -32 0 -38 19 -7 23 12 2
22 10 22 18 0 8 2 14 5 14 3 0 5 -13 5 -28z"/>
<path d="M2295 2200 c3 -5 8 -10 11 -10 2 0 4 5 4 10 0 6 -5 10 -11 10 -5 0
-7 -4 -4 -10z"/>
<path d="M2260 2189 c0 -5 5 -7 10 -4 6 3 10 8 10 11 0 2 -4 4 -10 4 -5 0 -10
-5 -10 -11z"/>
<path d="M2235 2170 c-3 -5 -1 -10 4 -10 6 0 11 5 11 10 0 6 -2 10 -4 10 -3 0
-8 -4 -11 -10z"/>
<path d="M2225 2140 c-3 -5 -1 -10 4 -10 6 0 11 5 11 10 0 6 -2 10 -4 10 -3 0
-8 -4 -11 -10z"/>
<path d="M2166 2848 c41 -70 113 -126 252 -198 l82 -42 83 42 c112 59 186 112
225 162 49 64 16 61 -49 -4 -33 -33 -86 -70 -139 -97 -47 -24 -93 -51 -102
-59 -16 -13 -20 -13 -35 0 -10 8 -56 35 -103 59 -52 27 -106 64 -138 96 -29
29 -60 53 -68 53 -9 0 -12 -5 -8 -12z"/>
<path d="M1062 1740 c-31 -13 -55 -71 -43 -104 6 -13 20 -31 33 -40 70 -49
156 21 123 100 -19 47 -63 64 -113 44z m48 -65 c0 -22 -4 -25 -37 -24 -31 2
-33 3 -10 6 19 3 27 10 27 24 0 10 5 19 10 19 6 0 10 -11 10 -25z"/>
</g>
</svg>
